<svg width="290.78" height="279.29" viewBox="0 0 87.227 118.501" xmlns="http://www.w3.org/2000/svg"><path d="M-17.728-.09v2.339c.039.002.076.011.114.011 1.287 0 2.39-1.041 2.39-2.328 0-.008-.003-.015-.003-.023zm22.84 0l-.419.024c-.04 0-.079-.006-.118-.005C1.524-.057-1.4 1.425-3.337 4.037c-1.838 2.512-1.838 5.454-.674 8.64-.613-.062-5.33-4.167-2.512-8.395C-4.194.85-7.81 1.157-8.85 3.792c-.49 1.164-.613 2.39-.368 3.86l-3.37-4.044c-1.593-1.286-3.799 1.287-2.267 2.39l4.228 3.064c-1.47-.184-2.697.06-3.86.551-2.574 1.164-2.758 4.78.674 2.329 4.105-3.003 8.455 1.409 8.578 1.96-3.31-.919-6.25-.796-8.701 1.164-2.482 1.954-3.828 4.799-3.771 7.71l-.005 1.55-.015.031v21.324c.036-.035.08-.065.115-.1 1.348 1.348 3.124 2.512 5.269 2.574 1.103.06 2.267-.49 2.022-1.104-.367-.857-1.777-.796-2.512-.98-2.329-.368-3.922-1.348-4.29-5.27-.06-.796.185-.857.614-.183 1.164 1.96 2.573 3.492 5.269 3.186 4.044-1.164 1.9-5.331.123-4.78-2.942-.06-2.023 2.574-.123 2.206.429-.06.674.185.674.43 0 .367-.429.612-.92.735-.98.245-2.511-.307-3.246-.858a5.919 5.919 0 01-1.594-2.083c-.612-1.348-.796-3.003-.551-4.841.122-.858.429-1.103.92-.552.734 1.471 1.776 2.574 3.247 3.125 1.776.735 4.044.797 5.27-1.225.918-1.654.06-3.86-1.84-3.676-3.063-.062-2.573 3.492-.06 3.125-.246.673-.797.98-1.594.98-2.205 0-3.86-1.348-4.779-3.247-.747-1.496-1.01-3.478-.734-5.895 1.107 2.022 2.86 3.39 5.146 3.811 4.227.735 7.475-1.716 8.456-5.698.673-4.657-3.248-7.537-6.679-6.189-1.961.797-3.002 2.328-2.451 4.412.429 1.531 2.696 2.39 3.922 1.102.796-.858.98-3.186-1.41-3.737 1.47-.735 2.696-.613 3.554-.061 3.738 2.389 1.716 7.475-1.777 8.64-1.96.673-4.473.673-6.373-1.287-3.186-3.31-3.124-7.844-.122-11.275 4.289-4.902 13.296-1.9 13.91 4.35.122 1.165-.062 2.329-.49 3.554.244 1.47.796 1.655 1.592.552 1.103-1.47 1.042-3.8.613-5.638l3.615 5.332c1.103 1.348 2.39 1.041 3.125.184.796-.736 1.041-2.023-.368-3.064l-5.576-3.248c1.9.307 4.228.245 5.699-.919 1.042-.858.857-1.348-.674-1.593-1.226.551-2.39.797-3.555.735-6.31-.306-9.864-9.007-5.085-13.541C1.872.545 6.467.238 9.96 3.24c2.083 1.778 2.206 4.229 1.654 6.19-.98 3.554-6.005 5.759-8.64 2.266-.613-.857-.796-2.083-.183-3.553.735 2.328 3.125 2.022 3.921 1.225 1.226-1.348.246-3.492-1.348-3.86-2.083-.43-3.615.735-4.289 2.635-1.225 3.492 1.9 7.23 6.618 6.31 3.921-1.163 6.25-4.533 5.269-8.639C12.411 3.547 10.94 1.892 8.734.85A10.017 10.017 0 007.481.377L9.9.729c4.411.367 5.514 2.144 6.004 4.656.184.92.062 2.45 1.103 2.819.674.245 1.287-.98 1.287-2.206-.122-2.39-1.47-4.35-2.941-5.821.08-.084.152-.182.231-.268zm13.845 0c-.014.09-.051.17-.051.267 0 .92.735 1.715 1.715 1.715.981 0 1.777-.796 1.777-1.715 0-.096-.04-.176-.054-.268zm5.637 0c-.018.088-.052.17-.052.267 0 .674.553 1.287 1.288 1.287S27.116.85 27.116.177c0-.096-.033-.179-.05-.268zm36.152 0c-.018.088-.051.17-.051.267 0 .674.551 1.287 1.287 1.287.735 0 1.287-.613 1.287-1.287 0-.096-.033-.179-.051-.268zm4.722 0c-.015.09-.055.17-.055.267 0 .92.796 1.715 1.777 1.715.98 0 1.716-.796 1.716-1.715 0-.096-.038-.176-.051-.268zm6.76 0c.08.085.152.183.231.267-1.47 1.47-2.818 3.431-2.94 5.821 0 1.226.612 2.45 1.286 2.206 1.042-.368.92-1.9 1.103-2.819.49-2.512 1.593-4.29 6.005-4.656l2.464-.365a9.622 9.622 0 012.739-.43L82.69-.09zm10.888.025l.115.006-2.854.423a10 10 0 00-1.3.486c-2.205 1.042-3.676 2.697-4.227 4.964-.981 4.106 1.347 7.476 5.269 8.64 4.718.92 7.843-2.819 6.617-6.311-.674-1.9-2.205-3.064-4.289-2.635-1.593.368-2.573 2.512-1.348 3.86.797.797 3.186 1.103 3.921-1.225.613 1.47.43 2.696-.183 3.553-2.635 3.493-7.66 1.288-8.64-2.267-.551-1.96-.429-4.411 1.654-6.188C81.344.238 85.94.545 89.187 3.67c4.78 4.534 1.226 13.235-5.085 13.541-1.164.062-2.329-.184-3.554-.735-1.532.245-1.716.735-.674 1.593 1.47 1.164 3.799 1.226 5.698.92l-5.575 3.247c-1.41 1.041-1.165 2.328-.368 3.064.735.857 2.022 1.164 3.125-.184l3.615-5.332c-.43 1.839-.49 4.167.613 5.638.796 1.103 1.348.919 1.593-.552-.429-1.225-.613-2.39-.49-3.553.612-6.25 9.62-9.253 13.91-4.35 3.001 3.43 3.063 7.965-.123 11.274-1.9 1.96-4.413 1.96-6.374 1.286-3.492-1.164-5.514-6.25-1.776-8.64.858-.55 2.083-.673 3.554.062-2.39.551-2.206 2.88-1.41 3.737 1.226 1.287 3.493.43 3.922-1.102.55-2.084-.49-3.615-2.451-4.412-3.431-1.348-7.353 1.532-6.68 6.189.982 3.982 4.229 6.433 8.457 5.698 2.286-.421 4.039-1.79 5.146-3.811.275 2.417.013 4.399-.734 5.895-.92 1.899-2.574 3.247-4.78 3.247-.797 0-1.347-.307-1.593-.98 2.512.367 3.002-3.187-.061-3.125-1.9-.184-2.758 2.022-1.839 3.676 1.226 2.022 3.493 1.96 5.27 1.225 1.47-.551 2.512-1.654 3.247-3.125.491-.551.797-.306.92.552.245 1.838.06 3.493-.552 4.84a5.919 5.919 0 01-1.593 2.084c-.736.551-2.267 1.103-3.247.858-.49-.123-.92-.368-.92-.736 0-.244.246-.49.675-.429 1.9.368 2.818-2.267-.123-2.205-1.777-.552-3.922 3.615.123 4.779 2.696.306 4.104-1.226 5.269-3.186.429-.674.674-.613.613.184-.368 3.921-1.96 4.901-4.29 5.269-.735.184-2.144.123-2.512.98-.245.613.92 1.165 2.022 1.104 2.145-.062 3.922-1.226 5.27-2.574.065.065.144.121.21.186V24.633l-.149-.314.037-1.613-.001.005c.035-2.888-1.31-5.706-3.773-7.645-2.451-1.96-5.393-2.083-8.702-1.164.123-.551 4.473-4.963 8.579-1.96 3.431 2.45 3.248-1.165.674-2.329-1.164-.49-2.39-.735-3.86-.551l4.227-3.064c1.532-1.103-.673-3.676-2.266-2.39l-3.37 4.044c.245-1.47.122-2.696-.368-3.86-1.042-2.635-4.657-2.941-2.329.49 2.819 4.228-1.899 8.333-2.512 8.395 1.165-3.186 1.165-6.128-.674-8.64-1.938-2.612-4.86-4.094-7.91-4.108-.041 0-.082.006-.122.006zm19.922-.026c0 .008-.003.015-.003.023 0 1.287 1.103 2.328 2.39 2.328.072 0 .14-.015.21-.021v-2.33zM43.906 2.63c-.797 0-1.41.611-1.41 1.408 0 .796.613 1.41 1.41 1.41.796 0 1.409-.614 1.409-1.41 0-.797-.613-1.409-1.41-1.409zm0 4.656c-.981 0-1.777.735-1.777 1.715 0 .92.796 1.716 1.777 1.716.98 0 1.715-.796 1.715-1.716 0-.98-.735-1.715-1.715-1.715zm-5.477 4.04c-1.036.012-2.045.532-1.815 1.107.368.919 1.716.858 2.512.98 2.328.368 3.921 1.348 4.29 5.33.06.736-.185.798-.614.123-1.164-1.96-2.573-3.492-5.27-3.185-4.104 1.163-1.898 5.33-.122 4.778 2.942.123 2.022-2.573.123-2.205-.429.06-.735-.123-.674-.368 0-.429.429-.674.919-.796.98-.246 2.451.306 3.248.858a5.626 5.626 0 011.593 2.144c.612 1.348.797 2.941.551 4.78-.122.858-.429 1.164-.919.55-.735-1.47-1.838-2.572-3.247-3.124-1.778-.735-4.044-.797-5.27 1.225-.919 1.654-.062 3.86 1.838 3.677 3.064.061 2.574-3.493 0-3.126.306-.612.858-.98 1.655-.98 2.205 0 3.86 1.349 4.78 3.248.748 1.497 1.009 3.482.732 5.903-1.162-2.026-2.856-3.398-5.145-3.82a8.39 8.39 0 00-1.539-.127c-3.478.042-6.113 2.395-6.916 5.826-.675 4.657 3.247 7.537 6.678 6.189 1.9-.797 3.003-2.329 2.452-4.351-.43-1.593-2.697-2.45-3.922-1.164-.797.858-.98 3.186 1.41 3.799-1.471.674-2.697.613-3.555 0-3.737-2.39-1.715-7.475 1.777-8.64 1.96-.674 4.473-.674 6.372 1.348 3.187 3.248 3.126 7.782.123 11.214-4.289 4.901-13.297 1.9-13.97-4.35-.062-1.165.122-2.33.551-3.555-.245-1.47-.796-1.654-1.593-.552-1.103 1.471-1.042 3.8-.674 5.7l-3.554-5.393c-1.103-1.348-2.39-1.042-3.125-.184-.797.735-1.041 2.023.307 3.064l5.637 3.247c-1.9-.306-4.229-.183-5.7.92-1.04.857-.857 1.347.675 1.592 1.226-.49 2.39-.796 3.554-.735 6.312.307 9.865 9.008 5.086 13.542-3.248 3.125-7.843 3.431-11.336.49-2.083-1.838-2.205-4.29-1.654-6.25.98-3.493 6.005-5.76 8.64-2.206.612.858.796 2.022.122 3.492-.674-2.328-3.064-2.021-3.86-1.163-1.226 1.286-.245 3.43 1.348 3.798 2.083.43 3.615-.735 4.289-2.635 1.225-3.492-1.96-7.23-6.618-6.31-3.92 1.164-6.311 4.534-5.27 8.7.552 2.268 2.023 3.86 4.228 4.903.21.1.422.19.634.274l-1.797-.152c-4.474-.367-5.577-2.144-6.006-4.657-.183-.858-.06-2.39-1.102-2.819-.675-.245-1.287 1.043-1.287 2.207.122 2.39 1.47 4.35 2.94 5.82C9.47 60.838 8.122 62.8 8 65.128c0 1.225.612 2.512 1.287 2.205 1.041-.367.919-1.9 1.102-2.757.43-2.573 1.532-4.35 6.006-4.657l1.516-.093c-.117.05-.235.1-.353.154-2.205 1.042-3.676 2.697-4.227 4.964-.981 4.105 1.348 7.475 5.27 8.64 4.717.919 7.842-2.82 6.617-6.312-.674-1.9-2.206-3.064-4.29-2.635-1.592.368-2.573 2.513-1.347 3.86.796.797 3.186 1.104 3.921-1.225.613 1.471.43 2.696-.184 3.554-2.635 3.493-7.659 1.287-8.639-2.267-.551-1.96-.429-4.412 1.654-6.19 3.493-3.001 8.088-2.695 11.336.43 4.78 4.534 1.226 13.235-5.086 13.541-1.164.062-2.329-.183-3.554-.734-1.532.245-1.715.735-.674 1.593 1.471 1.164 3.799 1.225 5.699.92l-5.576 3.246c-1.41 1.042-1.165 2.329-.368 3.064.735.858 2.022 1.164 3.125-.184l3.615-5.331c-.429 1.839-.49 4.167.613 5.637.797 1.103 1.348.92 1.593-.551-.429-1.226-.613-2.39-.49-3.554.613-6.25 9.62-9.252 13.91-4.35 3.002 3.431 3.063 7.965-.123 11.274-1.9 1.96-4.412 1.96-6.373 1.287-3.492-1.164-5.515-6.25-1.777-8.64.858-.551 2.084-.674 3.554.061-2.39.552-2.206 2.88-1.41 3.738 1.226 1.287 3.494.43 3.922-1.102.552-2.084-.49-3.616-2.45-4.412-3.432-1.349-7.354 1.531-6.68 6.188.98 3.983 4.229 6.434 8.456 5.699 2.288-.422 4.04-1.793 5.146-3.817.276 2.42.014 4.404-.734 5.9-.92 1.9-2.573 3.248-4.779 3.248-.797 0-1.348-.307-1.594-.98 2.512.367 3.003-3.187-.06-3.126-1.9-.184-2.758 2.023-1.839 3.677 1.226 2.022 3.493 1.96 5.27 1.225 1.47-.551 2.512-1.654 3.247-3.125.49-.551.797-.306.92.552.245 1.838.06 3.493-.552 4.84a5.919 5.919 0 01-1.593 2.084c-.736.551-2.268 1.103-3.248.857-.49-.122-.919-.367-.919-.735 0-.245.245-.49.674-.429 1.9.368 2.819-2.267-.123-2.205-1.776-.552-3.921 3.615.123 4.779 2.696.306 4.105-1.226 5.27-3.186.428-.674.673-.613.612.183-.367 3.922-1.96 4.902-4.289 5.27-.735.184-2.145.122-2.512.98-.246.613.919 1.164 2.022 1.103 2.144-.061 3.921-1.226 5.27-2.574 1.347 1.348 3.125 2.513 5.27 2.574 1.102.061 2.266-.49 2.021-1.103-.368-.858-1.777-.796-2.574-.98-2.266-.368-3.86-1.348-4.227-5.27-.061-.796.122-.857.612-.183 1.165 1.96 2.574 3.492 5.27 3.186 4.044-1.164 1.9-5.331.123-4.78-2.941-.061-2.023 2.574-.185 2.206.49-.06.736.184.736.43 0 .367-.429.612-.919.734-.98.246-2.512-.306-3.247-.857a5.436 5.436 0 01-1.655-2.083c-.551-1.348-.735-3.003-.49-4.841.122-.858.428-1.103.919-.552.735 1.47 1.777 2.574 3.248 3.125 1.777.735 4.044.797 5.27-1.225.918-1.654.06-3.86-1.84-3.677-3.063-.061-2.634 3.493-.06 3.125-.246.674-.797.98-1.594.98-2.206 0-3.86-1.347-4.78-3.247-.766-1.533-1.02-3.58-.71-6.081.014.025.023.051.037.076 1.103 2.084 2.88 3.493 5.208 3.922 4.228.735 7.475-1.716 8.456-5.699.674-4.657-3.248-7.537-6.679-6.188-1.961.796-3.002 2.328-2.45 4.412.428 1.531 2.696 2.389 3.921 1.102.797-.858.98-3.186-1.41-3.738 1.471-.735 2.696-.612 3.554-.06 3.738 2.389 1.716 7.475-1.776 8.639-1.961.674-4.474.674-6.374-1.287-3.186-3.309-3.124-7.843-.122-11.274 4.29-4.902 13.297-1.9 13.91 4.35.122 1.164-.062 2.328-.49 3.554.245 1.47.796 1.654 1.592.551 1.104-1.47 1.043-3.798.613-5.637l3.616 5.33c1.103 1.349 2.389 1.043 3.125.185.796-.735 1.04-2.022-.368-3.064l-5.576-3.247c1.9.306 4.228.245 5.699-.92 1.041-.857.857-1.347-.675-1.592-1.225.551-2.39.796-3.554.734-6.311-.306-9.865-9.007-5.085-13.54 3.248-3.126 7.843-3.432 11.336-.43 2.083 1.777 2.205 4.228 1.654 6.189-.98 3.554-6.005 5.76-8.64 2.267-.613-.858-.796-2.083-.183-3.554.735 2.329 3.124 2.022 3.92 1.226 1.226-1.348.246-3.493-1.347-3.86-2.083-.43-3.615.735-4.29 2.634-1.225 3.493 1.9 7.23 6.618 6.312 3.922-1.165 6.25-4.535 5.27-8.64-.552-2.267-2.023-3.922-4.228-4.964a10.188 10.188 0 00-.492-.211l1.656.09c4.412.367 5.515 2.144 6.005 4.656.184.919.061 2.45 1.103 2.818.674.245 1.286-.98 1.286-2.205-.122-2.39-1.47-4.35-2.94-5.822 1.47-1.531 2.818-3.491 2.94-5.82 0-1.226-.612-2.513-1.286-2.207-1.042.368-.92 1.9-1.103 2.758-.49 2.573-1.593 4.35-6.005 4.718l-1.965.166c.227-.088.454-.18.679-.288 2.206-1.042 3.676-2.635 4.228-4.903 1.041-4.166-1.349-7.536-5.27-8.7-4.657-.92-7.843 2.818-6.618 6.31.675 1.9 2.206 3.064 4.29 2.635 1.593-.367 2.573-2.512 1.348-3.798-.797-.858-3.186-1.165-3.86 1.163-.675-1.47-.491-2.634.122-3.492 2.634-3.554 7.66-1.287 8.64 2.206.55 1.96.428 4.412-1.655 6.25-3.492 2.941-8.088 2.635-11.336-.49-4.779-4.534-1.225-13.235 5.086-13.542 1.164-.061 2.329.245 3.554.735 1.532-.245 1.716-.735.675-1.593-1.471-1.102-3.8-1.225-5.7-.919l5.638-3.247c1.348-1.041 1.103-2.329.306-3.064-.735-.858-2.022-1.164-3.125.184l-3.554 5.392c.368-1.9.43-4.228-.673-5.699-.797-1.102-1.348-.919-1.594.552.43 1.225.613 2.39.552 3.554-.674 6.25-9.682 9.252-13.971 4.35-3.002-3.431-3.064-7.965.123-11.213 1.9-2.022 4.411-2.022 6.372-1.348 3.493 1.165 5.515 6.25 1.777 8.64-.858.613-2.083.674-3.554 0 2.39-.613 2.206-2.941 1.41-3.8-1.225-1.286-3.493-.428-3.922 1.165-.552 2.022.552 3.554 2.451 4.35 3.431 1.349 7.353-1.531 6.679-6.188-.919-3.922-4.228-6.434-8.456-5.698-2.288.42-3.983 1.79-5.145 3.815-.276-2.42-.015-4.402.733-5.9.92-1.898 2.574-3.246 4.718-3.246.858 0 1.41.367 1.655.98-2.574-.368-3.003 3.186.061 3.125 1.9.184 2.758-2.023 1.777-3.677-1.164-2.022-3.431-1.96-5.208-1.225-1.471.552-2.513 1.654-3.248 3.125-.49.613-.796.307-.919-.552-.307-1.838-.123-3.43.49-4.779.368-.858.92-1.593 1.655-2.144.735-.552 2.267-1.104 3.247-.858.49.122.92.367.92.796 0 .245-.246.429-.737.368-1.838-.368-2.818 2.328.185 2.205 1.777.552 3.921-3.615-.123-4.778-2.696-.307-4.105 1.225-5.27 3.185-.49.675-.674.613-.612-.122.368-3.983 1.96-4.963 4.228-5.33.796-.123 2.206-.062 2.573-.981.245-.613-.919-1.165-2.022-1.103-2.144.061-3.921 1.226-5.27 2.573-1.348-1.347-3.125-2.512-5.27-2.573a3.097 3.097 0 00-.206-.004zm5.378 23.761l.037.079v.119a8.975 8.975 0 00-.037-.198zm.183.03l-.023.127v-.078zm-.084.171l.04.08c-.015.089-.03.177-.041.265-.012-.086-.03-.171-.044-.257zm0 2.777c.326 2.422 1.616 4.705 3.676 6.353 2.451 1.96 5.392 2.083 8.701 1.164-.061.551-4.473 4.963-8.578 1.96-3.432-2.45-3.247 1.165-.674 2.33 1.164.49 2.39.735 3.86.55l-4.166 3.065c-1.594 1.102.612 3.676 2.266 2.389l3.31-4.044c-.246 1.47-.123 2.696.367 3.86 1.041 2.635 4.657 2.942 2.39-.49-2.819-4.228 1.838-8.333 2.451-8.395-1.103 3.248-1.164 6.128.674 8.64 1.49 2.008 3.564 3.358 5.829 3.884a9.677 9.677 0 00-.351.092l-.087.007.052.002c-2.066.593-3.943 1.878-5.321 3.736-1.839 2.512-1.839 5.453-.674 8.64-.613-.062-5.33-4.167-2.512-8.395 2.328-3.432-1.287-3.125-2.329-.49-.49 1.164-.613 2.39-.368 3.86l-3.37-4.044c-1.592-1.286-3.798 1.287-2.266 2.39l4.227 3.064c-1.47-.185-2.696.06-3.86.551-2.573 1.164-2.757 4.779.674 2.328 4.106-3.002 8.456 1.41 8.579 1.961-3.31-.919-6.25-.797-8.702 1.164-2.215 1.743-3.526 4.197-3.741 6.774-.217-2.577-1.519-5.03-3.734-6.774-2.45-1.96-5.392-2.083-8.7-1.164.122-.551 4.472-4.963 8.577-1.961 3.432 2.45 3.248-1.164.674-2.328-1.164-.49-2.39-.736-3.86-.551l4.228-3.064c1.532-1.103-.674-3.676-2.267-2.39l-3.37 4.044c.245-1.47.122-2.696-.368-3.86-1.042-2.635-4.656-2.942-2.328.49 2.819 4.228-1.899 8.333-2.512 8.395 1.164-3.187 1.164-6.128-.674-8.64-1.378-1.858-3.255-3.142-5.32-3.735l.05-.003-.086-.007a9.624 9.624 0 00-.397-.104c2.236-.538 4.28-1.886 5.752-3.872 1.839-2.512 1.777-5.392.674-8.64.613.062 5.27 4.168 2.451 8.395-2.266 3.432 1.349 3.125 2.39.49.49-1.164.613-2.39.368-3.86l3.31 4.044c1.653 1.287 3.86-1.287 2.266-2.39l-4.166-3.063c1.47.184 2.695-.062 3.86-.552 2.573-1.164 2.757-4.779-.675-2.328-4.105 3.002-8.517-1.41-8.578-1.96 3.31.918 6.25.795 8.7-1.165 2.061-1.648 3.35-3.931 3.677-6.353zm-61.52 10.703c-.04 0-.074.02-.114.023v3.387c.04.003.074.022.114.022.98 0 1.778-.736 1.778-1.716 0-.919-.797-1.716-1.778-1.716zm123.039 0c-.98 0-1.777.797-1.777 1.716 0 .98.797 1.716 1.777 1.716.075 0 .138-.032.21-.04v-3.35c-.072-.008-.135-.042-.21-.042zm-123.039 5.27c-.04 0-.074.02-.114.024v2.772c.04.003.074.022.114.022.797 0 1.41-.612 1.41-1.408 0-.736-.613-1.41-1.41-1.41zm123.039 0c-.797 0-1.41.674-1.41 1.41 0 .796.613 1.408 1.41 1.408.075 0 .139-.03.21-.04V54.08c-.071-.011-.135-.044-.21-.044zm-61.357 2.882a2.393 2.393 0 00-2.39 2.39c0 1.287 1.104 2.328 2.39 2.328 1.287 0 2.39-1.041 2.39-2.328a2.393 2.393 0 00-2.39-2.39zM5.67 57.59c-.98 0-1.776.796-1.776 1.715 0 .98.796 1.778 1.776 1.778s1.716-.797 1.716-1.778c0-.919-.735-1.715-1.716-1.715zm76.593 0c-.98 0-1.716.735-1.716 1.715 0 .92.736 1.716 1.716 1.716s1.777-.797 1.777-1.716c0-.98-.796-1.715-1.777-1.715zm5.208.429c-.735 0-1.287.551-1.287 1.286 0 .675.552 1.287 1.287 1.287.736 0 1.287-.612 1.287-1.287 0-.735-.551-1.286-1.287-1.286zm-86.947.06a1.23 1.23 0 00-1.226 1.227 1.23 1.23 0 001.226 1.225c.735 0 1.286-.551 1.286-1.225S1.26 58.08.524 58.08zm-18.138 3.678c-.04 0-.074.019-.114.022v2.774c.04.003.073.022.114.022.796 0 1.41-.613 1.41-1.41 0-.796-.614-1.408-1.41-1.408zm123.161 0c-.796 0-1.41.612-1.41 1.409 0 .796.614 1.41 1.41 1.41.032 0 .058-.016.089-.018v-2.784c-.031-.002-.057-.017-.089-.017zm-123.161 4.656c-.041 0-.074.02-.114.022v3.387c.04.002.073.023.114.023.98 0 1.778-.797 1.778-1.716 0-.98-.797-1.716-1.778-1.716zm123.161 0c-.98 0-1.777.736-1.777 1.716 0 .919.797 1.716 1.777 1.716.032 0 .058-.017.089-.018V66.43c-.031-.002-.057-.017-.089-.017zm-5.476 4.04c-1.036.012-2.046.533-1.816 1.107.368.92 1.716.858 2.513.98 2.328.368 3.921 1.349 4.289 5.332.061.735-.184.796-.613.122-1.164-1.96-2.573-3.492-5.27-3.186-4.105 1.164-1.899 5.33-.122 4.779 2.941.123 2.022-2.573.123-2.206-.43.062-.735-.122-.674-.367 0-.43.429-.675.919-.797.98-.246 2.45.307 3.247.858a5.626 5.626 0 011.594 2.145c.612 1.348.796 2.941.551 4.779-.123.858-.429 1.164-.92.551-.734-1.47-1.838-2.573-3.247-3.125-1.777-.735-4.044-.796-5.27 1.226-.918 1.654-.06 3.86 1.839 3.676 3.063.062 2.573-3.492 0-3.125.306-.612.858-.98 1.654-.98 2.206 0 3.86 1.348 4.78 3.248.748 1.496 1.01 3.479.734 5.898-1.163-2.024-2.858-3.394-5.146-3.815-4.228-.735-7.537 1.777-8.456 5.698-.674 4.657 3.248 7.537 6.679 6.189 1.9-.797 3.003-2.328 2.452-4.35-.43-1.593-2.698-2.451-3.923-1.165-.796.858-.98 3.186 1.41 3.8-1.47.673-2.696.612-3.554 0-3.738-2.39-1.716-7.476 1.777-8.64 1.96-.674 4.473-.674 6.372 1.348 3.187 3.247 3.125 7.782.123 11.213-4.289 4.902-13.297 1.9-13.97-4.35-.062-1.165.122-2.329.55-3.554-.244-1.47-.796-1.655-1.592-.552-1.103 1.47-1.042 3.8-.674 5.698l-3.554-5.391c-1.103-1.348-2.39-1.042-3.125-.184-.797.735-1.041 2.022.306 3.063l5.637 3.247c-1.899-.306-4.228-.183-5.699.92-1.04.858-.857 1.348.675 1.593 1.225-.49 2.39-.796 3.554-.735 6.311.307 9.865 9.007 5.086 13.541-3.248 3.125-7.844 3.432-11.336.49-2.083-1.838-2.206-4.289-1.654-6.25.98-3.492 6.005-5.759 8.639-2.205.613.858.797 2.022.122 3.492-.674-2.328-3.063-2.022-3.86-1.164-1.225 1.287-.245 3.432 1.348 3.8 2.084.428 3.615-.736 4.29-2.636 1.225-3.492-1.961-7.23-6.618-6.311-3.921 1.164-6.311 4.535-5.27 8.701.552 2.268 2.023 3.86 4.228 4.902.397.19.8.341 1.205.473l-2.369-.35c-4.473-.368-5.576-2.145-6.005-4.657-.184-.858-.061-2.39-1.103-2.819-.674-.245-1.286 1.042-1.286 2.206.121 2.377 1.456 4.328 2.918 5.796h13.065c2.194-.554 4.197-1.881 5.646-3.835 1.839-2.512 1.777-5.392.674-8.64.613.061 5.27 4.167 2.451 8.395-2.266 3.431 1.349 3.124 2.39.49.49-1.165.613-2.39.368-3.86l3.309 4.044c1.654 1.286 3.86-1.287 2.266-2.39l-4.166-3.064c1.47.185 2.696-.061 3.86-.551 2.574-1.164 2.758-4.78-.674-2.329-4.105 3.003-8.517-1.41-8.578-1.96 3.309.919 6.25.796 8.7-1.164 2.568-2.054 3.938-5.094 3.74-8.16l-.002-1.093.028-.057V72.954c-.028.027-.061.05-.089.078-1.348-1.347-3.125-2.512-5.27-2.573a2.969 2.969 0 00-.206-.005zm-112.415.005c-2.145.06-3.921 1.225-5.27 2.573-.035-.035-.078-.066-.114-.1v21.3l.016.035.012 1.658.012-.04c-.027 2.895 1.323 5.72 3.75 7.662 2.451 1.96 5.393 2.083 8.702 1.163-.061.552-4.474 4.964-8.579 1.961-3.431-2.45-3.247 1.165-.674 2.329 1.164.49 2.39.736 3.86.551l-4.166 3.064c-1.593 1.103.613 3.676 2.267 2.39l3.309-4.044c-.245 1.47-.122 2.695.368 3.86 1.041 2.634 4.656 2.941 2.39-.49-2.819-4.228 1.837-8.334 2.45-8.395-1.103 3.248-1.164 6.128.675 8.64 1.448 1.952 3.448 3.279 5.638 3.835h13.073c1.46-1.468 2.797-3.42 2.918-5.796 0-1.164-.613-2.451-1.287-2.206-1.042.429-.919 1.96-1.103 2.82-.429 2.511-1.531 4.288-6.005 4.655l-2.451.387a9.857 9.857 0 001.288-.509c2.205-1.042 3.676-2.635 4.227-4.902 1.042-4.166-1.348-7.537-5.27-8.701-4.656-.92-7.842 2.819-6.617 6.311.674 1.9 2.206 3.064 4.289 2.635 1.593-.367 2.574-2.512 1.349-3.799-.797-.858-3.187-1.164-3.861 1.164-.674-1.47-.49-2.634.123-3.492 2.634-3.554 7.66-1.287 8.64 2.206.55 1.96.428 4.411-1.656 6.25-3.492 2.941-8.088 2.634-11.335-.49-4.78-4.535-1.225-13.235 5.086-13.542 1.164-.061 2.328.245 3.554.735 1.532-.245 1.715-.735.674-1.593-1.47-1.103-3.8-1.226-5.699-.92l5.637-3.247c1.348-1.041 1.103-2.328.306-3.063-.735-.858-2.021-1.164-3.125.184l-3.553 5.391c.368-1.899.43-4.227-.674-5.698-.797-1.103-1.348-.919-1.593.552.429 1.225.612 2.39.551 3.553-.674 6.25-9.681 9.253-13.97 4.351-3.002-3.431-3.064-7.966.122-11.213 1.9-2.022 4.412-2.022 6.372-1.349 3.493 1.165 5.515 6.25 1.778 8.64-.858.613-2.083.674-3.554 0 2.39-.613 2.206-2.94 1.409-3.799-1.225-1.286-3.492-.428-3.922 1.165-.551 2.022.552 3.553 2.452 4.35 3.431 1.348 7.352-1.532 6.678-6.189-.804-3.431-3.437-5.783-6.916-5.825a8.394 8.394 0 00-1.54.127c-2.288.422-3.982 1.794-5.145 3.82-.276-2.422-.015-4.406.734-5.903.92-1.9 2.573-3.248 4.78-3.248.795 0 1.347.368 1.654.98-2.574-.367-3.064 3.187 0 3.125 1.9.184 2.757-2.022 1.838-3.676-1.226-2.022-3.493-1.96-5.27-1.226-1.409.552-2.512 1.655-3.247 3.125-.49.613-.796.307-.92-.551-.244-1.838-.06-3.431.552-4.78a5.626 5.626 0 011.593-2.144c.797-.551 2.267-1.104 3.248-.858.49.122.919.368.919.797.061.245-.245.429-.674.367-1.9-.367-2.818 2.329.123 2.206 1.777.552 3.982-3.615-.123-4.779-2.696-.306-4.106 1.225-5.27 3.186-.428.674-.674.613-.613-.122.368-3.983 1.961-4.964 4.29-5.331.796-.123 2.144-.062 2.512-.98.245-.614-.92-1.165-2.022-1.103zm56.25 37.438c-.981 0-1.777.796-1.777 1.715 0 .98.796 1.717 1.776 1.717s1.778-.736 1.778-1.717c0-.919-.797-1.715-1.778-1.715zm0 5.27c-.797 0-1.41.673-1.41 1.409 0 .796.613 1.41 1.41 1.41.796 0 1.409-.614 1.409-1.41 0-.736-.613-1.41-1.41-1.41zm-61.52 2.94c-.039 0-.075.01-.114.012v2.292h2.501c-.014-1.275-1.109-2.303-2.387-2.303zm123.161 0c-1.278 0-2.372 1.029-2.387 2.304h2.476v-2.295c-.03 0-.059-.008-.089-.008zm-84.926.613a1.71 1.71 0 00-1.71 1.69h3.482c-.015-.907-.801-1.69-1.772-1.69zm46.691 0c-.97 0-1.756.783-1.771 1.69h3.482a1.71 1.71 0 00-1.711-1.69zm-41.544.49c-.725 0-1.266.539-1.28 1.2h2.5a1.226 1.226 0 00-1.22-1.2zm36.398 0c-.666 0-1.207.539-1.221 1.2h2.502c-.015-.661-.556-1.2-1.281-1.2z" fill="#0a0a0a" fill-rule="evenodd"/></svg>
